HIERARCHY
ROOT mixamorig:Hips
{
	OFFSET -0.000008 104.274872 1.554316
	CHANNELS 6 Xposition Yposition Zposition Xrotation Yrotation Zrotation
	JOINT mixamorig:Spine
	{
		OFFSET -0.000005 10.181595 0.131519
		CHANNELS 6 Xposition Yposition Zposition Xrotation Yrotation Zrotation
		JOINT mixamorig:Spine1
		{
			OFFSET -0.000000 9.893959 -1.470707
			CHANNELS 6 Xposition Yposition Zposition Xrotation Yrotation Zrotation
			JOINT mixamorig:Spine2
			{
				OFFSET -0.000000 9.220757 -1.370641
				CHANNELS 6 Xposition Yposition Zposition Xrotation Yrotation Zrotation
				JOINT mixamorig:Neck
				{
					OFFSET 0.000001 16.740417 -2.049036
					CHANNELS 6 Xposition Yposition Zposition Xrotation Yrotation Zrotation
					JOINT mixamorig:Head
					{
						OFFSET 0.000000 9.617874 1.685006
						CHANNELS 6 Xposition Yposition Zposition Xrotation Yrotation Zrotation
						JOINT mixamorig:HeadTop_End
						{
							OFFSET 0.000002 22.037354 7.501101
							CHANNELS 6 Xposition Yposition Zposition Xrotation Yrotation Zrotation
							End Site
							{
								OFFSET 0.000168 2310.654297 -282.823242
							}
						}
					}
				}
				JOINT mixamorig:RightShoulder
				{
					OFFSET -4.569970 11.014908 -2.160885
					CHANNELS 6 Xposition Yposition Zposition Xrotation Yrotation Zrotation
					JOINT mixamorig:RightArm
					{
						OFFSET -10.592851 -0.524811 -2.232101
						CHANNELS 6 Xposition Yposition Zposition Xrotation Yrotation Zrotation
						JOINT mixamorig:RightForeArm
						{
							OFFSET -27.841511 0.000031 -0.000004
							CHANNELS 6 Xposition Yposition Zposition Xrotation Yrotation Zrotation
							JOINT mixamorig:RightHand
							{
								OFFSET -28.328831 -0.000015 0.000015
								CHANNELS 6 Xposition Yposition Zposition Xrotation Yrotation Zrotation
								JOINT mixamorig:RightHandThumb1
								{
									OFFSET -2.464806 -1.573990 2.681852
									CHANNELS 6 Xposition Yposition Zposition Xrotation Yrotation Zrotation
									JOINT mixamorig:RightHandThumb2
									{
										OFFSET -3.215179 -1.872803 1.924282
										CHANNELS 6 Xposition Yposition Zposition Xrotation Yrotation Zrotation
										JOINT mixamorig:RightHandThumb3
										{
											OFFSET -2.654831 -1.527969 1.512609
											CHANNELS 6 Xposition Yposition Zposition Xrotation Yrotation Zrotation
											JOINT mixamorig:RightHandThumb4
											{
												OFFSET -2.018814 -1.152008 1.108052
												CHANNELS 6 Xposition Yposition Zposition Xrotation Yrotation Zrotation
												End Site
												{
													OFFSET -188.809540 -114.533607 132.431396
												}
											}
										}
									}
								}
								JOINT mixamorig:RightHandIndex1
								{
									OFFSET -9.108284 -0.517868 2.259835
									CHANNELS 6 Xposition Yposition Zposition Xrotation Yrotation Zrotation
									JOINT mixamorig:RightHandIndex2
									{
										OFFSET -3.699989 0.000000 0.001215
										CHANNELS 6 Xposition Yposition Zposition Xrotation Yrotation Zrotation
										JOINT mixamorig:RightHandIndex3
										{
											OFFSET -2.850006 0.000031 -0.000522
											CHANNELS 6 Xposition Yposition Zposition Xrotation Yrotation Zrotation
											JOINT mixamorig:RightHandIndex4
											{
												OFFSET -2.772186 -0.000015 -0.000020
												CHANNELS 6 Xposition Yposition Zposition Xrotation Yrotation Zrotation
												End Site
												{
													OFFSET -277.218445 0.000000 -0.050231
												}
											}
										}
									}
								}
								JOINT mixamorig:RightHandMiddle1
								{
									OFFSET -9.532516 -0.000031 -0.000023
									CHANNELS 6 Xposition Yposition Zposition Xrotation Yrotation Zrotation
									JOINT mixamorig:RightHandMiddle2
									{
										OFFSET -3.700005 -0.000015 0.003713
										CHANNELS 6 Xposition Yposition Zposition Xrotation Yrotation Zrotation
										JOINT mixamorig:RightHandMiddle3
										{
											OFFSET -2.949974 0.000015 -0.002054
											CHANNELS 6 Xposition Yposition Zposition Xrotation Yrotation Zrotation
											JOINT mixamorig:RightHandMiddle4
											{
												OFFSET -2.946640 0.000000 -0.000156
												CHANNELS 6 Xposition Yposition Zposition Xrotation Yrotation Zrotation
												End Site
												{
													OFFSET -294.664337 0.000000 -0.113670
												}
											}
										}
									}
								}
								JOINT mixamorig:RightHandRing1
								{
									OFFSET -9.103600 -0.043076 -1.865134
									CHANNELS 6 Xposition Yposition Zposition Xrotation Yrotation Zrotation
									JOINT mixamorig:RightHandRing2
									{
										OFFSET -3.379288 0.000000 -0.001055
										CHANNELS 6 Xposition Yposition Zposition Xrotation Yrotation Zrotation
										JOINT mixamorig:RightHandRing3
										{
											OFFSET -2.889687 -0.000015 0.000379
											CHANNELS 6 Xposition Yposition Zposition Xrotation Yrotation Zrotation
											JOINT mixamorig:RightHandRing4
											{
												OFFSET -2.638809 -0.000015 0.000941
												CHANNELS 6 Xposition Yposition Zposition Xrotation Yrotation Zrotation
												End Site
												{
													OFFSET -263.880371 0.000000 0.516020
												}
											}
										}
									}
								}
								JOINT mixamorig:RightHandPinky1
								{
									OFFSET -8.076683 -0.486710 -3.806280
									CHANNELS 6 Xposition Yposition Zposition Xrotation Yrotation Zrotation
									JOINT mixamorig:RightHandPinky2
									{
										OFFSET -3.600014 -0.000015 -0.003747
										CHANNELS 6 Xposition Yposition Zposition Xrotation Yrotation Zrotation
										JOINT mixamorig:RightHandPinky3
										{
											OFFSET -2.099983 0.000000 -0.005739
											CHANNELS 6 Xposition Yposition Zposition Xrotation Yrotation Zrotation
											JOINT mixamorig:RightHandPinky4
											{
												OFFSET -2.115768 -0.000031 -0.003680
												CHANNELS 6 Xposition Yposition Zposition Xrotation Yrotation Zrotation
												End Site
												{
													OFFSET -211.577087 0.000000 -0.350686
												}
											}
										}
									}
								}
							}
						}
					}
				}
				JOINT mixamorig:LeftShoulder
				{
					OFFSET 4.570447 11.014725 -2.160855
					CHANNELS 6 Xposition Yposition Zposition Xrotation Yrotation Zrotation
					JOINT mixamorig:LeftArm
					{
						OFFSET 10.592371 -0.524597 -2.232119
						CHANNELS 6 Xposition Yposition Zposition Xrotation Yrotation Zrotation
						JOINT mixamorig:LeftForeArm
						{
							OFFSET 27.841532 -0.000031 0.000026
							CHANNELS 6 Xposition Yposition Zposition Xrotation Yrotation Zrotation
							JOINT mixamorig:LeftHand
							{
								OFFSET 28.328846 -0.000061 0.000022
								CHANNELS 6 Xposition Yposition Zposition Xrotation Yrotation Zrotation
								JOINT mixamorig:LeftHandThumb1
								{
									OFFSET 2.466141 -1.576172 2.681732
									CHANNELS 6 Xposition Yposition Zposition Xrotation Yrotation Zrotation
									JOINT mixamorig:LeftHandThumb2
									{
										OFFSET 3.217812 -1.872070 1.916482
										CHANNELS 6 Xposition Yposition Zposition Xrotation Yrotation Zrotation
										JOINT mixamorig:LeftHandThumb3
										{
											OFFSET 2.656029 -1.528778 1.514513
											CHANNELS 6 Xposition Yposition Zposition Xrotation Yrotation Zrotation
											JOINT mixamorig:LeftHandThumb4
											{
												OFFSET 2.020889 -1.154053 1.115139
												CHANNELS 6 Xposition Yposition Zposition Xrotation Yrotation Zrotation
												End Site
												{
													OFFSET 190.885437 -115.081749 130.048782
												}
											}
										}
									}
								}
								JOINT mixamorig:LeftHandIndex1
								{
									OFFSET 9.109314 -0.518021 2.259871
									CHANNELS 6 Xposition Yposition Zposition Xrotation Yrotation Zrotation
									JOINT mixamorig:LeftHandIndex2
									{
										OFFSET 3.699989 0.000000 -0.000322
										CHANNELS 6 Xposition Yposition Zposition Xrotation Yrotation Zrotation
										JOINT mixamorig:LeftHandIndex3
										{
											OFFSET 2.850006 0.000000 0.000352
											CHANNELS 6 Xposition Yposition Zposition Xrotation Yrotation Zrotation
											JOINT mixamorig:LeftHandIndex4
											{
												OFFSET 2.774864 -0.000031 -0.000027
												CHANNELS 6 Xposition Yposition Zposition Xrotation Yrotation Zrotation
												End Site
												{
													OFFSET 277.486267 0.000000 -0.009857
												}
											}
										}
									}
								}
								JOINT mixamorig:LeftHandMiddle1
								{
									OFFSET 9.533394 0.000061 0.000044
									CHANNELS 6 Xposition Yposition Zposition Xrotation Yrotation Zrotation
									JOINT mixamorig:LeftHandMiddle2
									{
										OFFSET 3.699989 -0.000015 -0.000231
										CHANNELS 6 Xposition Yposition Zposition Xrotation Yrotation Zrotation
										JOINT mixamorig:LeftHandMiddle3
										{
											OFFSET 2.949997 -0.000015 -0.000059
											CHANNELS 6 Xposition Yposition Zposition Xrotation Yrotation Zrotation
											JOINT mixamorig:LeftHandMiddle4
											{
												OFFSET 2.952896 0.000031 0.000063
												CHANNELS 6 Xposition Yposition Zposition Xrotation Yrotation Zrotation
												End Site
												{
													OFFSET 295.289337 0.000000 0.022810
												}
											}
										}
									}
								}
								JOINT mixamorig:LeftHandRing1
								{
									OFFSET 9.104523 -0.042999 -1.865074
									CHANNELS 6 Xposition Yposition Zposition Xrotation Yrotation Zrotation
									JOINT mixamorig:LeftHandRing2
									{
										OFFSET 3.150009 -0.000031 0.000043
										CHANNELS 6 Xposition Yposition Zposition Xrotation Yrotation Zrotation
										JOINT mixamorig:LeftHandRing3
										{
											OFFSET 2.949982 -0.000015 0.000040
											CHANNELS 6 Xposition Yposition Zposition Xrotation Yrotation Zrotation
											JOINT mixamorig:LeftHandRing4
											{
												OFFSET 2.644348 0.000000 0.000057
												CHANNELS 6 Xposition Yposition Zposition Xrotation Yrotation Zrotation
												End Site
												{
													OFFSET 264.434631 0.000000 0.012105
												}
											}
										}
									}
								}
								JOINT mixamorig:LeftHandPinky1
								{
									OFFSET 8.077789 -0.486847 -3.806259
									CHANNELS 6 Xposition Yposition Zposition Xrotation Yrotation Zrotation
									JOINT mixamorig:LeftHandPinky2
									{
										OFFSET 3.599953 0.000031 0.014727
										CHANNELS 6 Xposition Yposition Zposition Xrotation Yrotation Zrotation
										JOINT mixamorig:LeftHandPinky3
										{
											OFFSET 2.100021 0.000015 0.007705
											CHANNELS 6 Xposition Yposition Zposition Xrotation Yrotation Zrotation
											JOINT mixamorig:LeftHandPinky4
											{
												OFFSET 2.125504 0.000031 0.007517
												CHANNELS 6 Xposition Yposition Zposition Xrotation Yrotation Zrotation
												End Site
												{
													OFFSET 212.550781 0.000000 0.625752
												}
											}
										}
									}
								}
							}
						}
					}
				}
			}
		}
	}
	JOINT mixamorig:RightUpLeg
	{
		OFFSET -8.207787 -6.751648 -1.599560
		CHANNELS 6 Xposition Yposition Zposition Xrotation Yrotation Zrotation
		JOINT mixamorig:RightLeg
		{
			OFFSET -0.000002 -44.370117 0.345942
			CHANNELS 6 Xposition Yposition Zposition Xrotation Yrotation Zrotation
			JOINT mixamorig:RightFoot
			{
				OFFSET 0.000003 -44.423679 -3.043532
				CHANNELS 6 Xposition Yposition Zposition Xrotation Yrotation Zrotation
				JOINT mixamorig:RightToeBase
				{
					OFFSET -0.000002 -8.728671 10.710558
					CHANNELS 6 Xposition Yposition Zposition Xrotation Yrotation Zrotation
					JOINT mixamorig:RightToe_End
					{
						OFFSET -0.000001 -0.000679 9.278119
						CHANNELS 6 Xposition Yposition Zposition Xrotation Yrotation Zrotation
						End Site
						{
							OFFSET 0.000000 -0.067690 927.812134
						}
					}
				}
			}
		}
	}
	JOINT mixamorig:LeftUpLeg
	{
		OFFSET 8.207793 -6.751686 -1.599556
		CHANNELS 6 Xposition Yposition Zposition Xrotation Yrotation Zrotation
		JOINT mixamorig:LeftLeg
		{
			OFFSET -0.000004 -44.370014 0.346954
			CHANNELS 6 Xposition Yposition Zposition Xrotation Yrotation Zrotation
			JOINT mixamorig:LeftFoot
			{
				OFFSET -0.000001 -44.423672 -3.044401
				CHANNELS 6 Xposition Yposition Zposition Xrotation Yrotation Zrotation
				JOINT mixamorig:LeftToeBase
				{
					OFFSET -0.000002 -8.728669 10.710558
					CHANNELS 6 Xposition Yposition Zposition Xrotation Yrotation Zrotation
					JOINT mixamorig:LeftToe_End
					{
						OFFSET -0.000003 -0.000679 9.278133
						CHANNELS 6 Xposition Yposition Zposition Xrotation Yrotation Zrotation
						End Site
						{
							OFFSET 0.000000 -0.068021 927.813477
						}
					}
				}
			}
		}
	}
}
MOTION
Frames: 3
Frame Time: 0.033333
0.000006 104.270477 1.554256 0.000010 0.000003 -0.000113 -0.000005 10.181587 0.131522 0.000001 -0.000003 0.000084 -0.000000 9.893967 -1.470711 0.000001 0.000000 -0.000000 -0.000000 9.220802 -1.370642 0.000000 -0.000000 -0.000000 0.000001 16.740433 -2.049030 0.000000 -0.000000 -0.000000 0.000000 9.617859 1.685014 0.000000 0.000000 0.000000 0.000002 22.037384 7.501101 0.000000 -0.000000 0.000000 -4.569968 11.014880 -2.160881 0.000008 0.000001 -0.000038 -10.592758 -0.524851 -2.231730 88.511575 66.972054 -65.609185 -27.841488 -0.000006 0.000584 48.627423 108.557886 -64.279545 -28.328829 0.000022 0.000015 -0.000324 -0.000044 0.000007 -2.464883 -1.574111 2.682014 -47.865645 -342.024127 -9.011127 -3.215122 -1.872996 1.924432 -69.239861 -8.595796 -24.124587 -2.654577 -1.528278 1.512937 -113.021906 -40.748762 -63.953985 -2.018827 -1.152015 1.108066 -0.000001 0.000000 0.000005 -9.108258 -0.517784 2.260427 -149.299220 1.948689 30.884155 -3.700122 0.000148 0.001398 46.030400 33.517938 -11.074531 -2.850055 0.000069 -0.000505 363.626840 8.770002 0.194776 -2.772172 -0.000000 -0.000015 -0.000001 -0.000001 0.000004 -9.532503 -0.000009 0.000525 -148.444176 2.394752 15.475561 -3.700058 -0.000085 0.003808 -16.172961 17.058517 13.637523 -2.950025 0.000052 -0.002057 371.070326 6.288045 -0.471602 -2.946639 0.000028 -0.000149 -0.000001 0.000003 -0.000000 -9.103601 -0.043067 -1.864589 -146.114221 0.275868 10.518163 -3.379262 0.000110 -0.001065 383.835048 -3.163693 -4.642422 -2.889719 0.000073 0.000378 369.211832 0.723761 -2.054487 -2.638809 -0.000000 0.000944 -0.000002 0.000000 -0.000000 -8.076659 -0.486789 -3.805768 -134.959907 -0.744947 4.508102 -3.599653 -0.000226 -0.003408 -140.049231 -47.892265 -100.200911 -2.099834 -0.000074 -0.005788 -17.378978 -27.229288 -5.990986 -2.115766 -0.000034 -0.003677 0.000003 -0.000000 -0.000001 4.570446 11.014691 -2.160851 -0.000018 0.000010 -0.000021 10.592531 -0.524535 -2.232399 72.032732 -65.923593 50.480091 27.841747 -0.000064 -0.000102 224.176548 -71.808497 238.543974 28.328831 -0.000029 0.000033 0.000021 -0.000089 0.000000 2.466146 -1.576152 2.681870 -59.535078 393.751936 -341.250103 3.217798 -1.872029 1.916513 -91.072930 410.958358 42.590673 2.656037 -1.528805 1.514611 -106.443184 47.405823 53.200545 2.020902 -1.154069 1.115138 0.000001 -0.000001 0.000004 9.109094 -0.517724 2.259985 -167.394536 -9.565122 -74.275220 3.699882 -0.000046 -0.000246 -181.259792 -17.573800 -188.039930 2.850122 0.000162 0.000369 -199.462383 -15.249067 -284.057322 2.774887 -0.000032 -0.000023 -0.000001 -0.000000 0.000000 9.533294 0.000440 0.000199 -160.222427 -5.717865 -31.944187 3.699781 0.000010 -0.000140 -178.188653 -14.429820 -165.780002 2.950109 0.000230 -0.000067 -206.146939 -11.747561 -312.198631 2.952870 -0.000015 0.000071 0.000001 -0.000001 0.000001 9.104454 -0.042619 -1.864917 -155.493355 -4.765173 -21.696425 3.149692 0.000364 0.000137 -173.786800 -5.203242 -79.875121 2.949992 0.000384 0.000024 -202.641140 -0.859457 4.298881 2.644322 0.000013 0.000053 -0.000002 -0.000001 0.000004 8.077730 -0.486463 -3.806084 -151.923242 -3.599409 -15.900293 3.600089 0.000171 0.014815 -169.727141 7.072342 63.685381 2.099772 0.000393 0.007626 -208.825206 17.245893 299.325773 2.125504 -0.000001 0.007510 -0.000003 -0.000002 0.000003 -8.207786 -6.751667 -1.599560 -0.077001 -0.000003 0.000080 -0.000002 -44.370110 0.345938 0.153719 -0.000000 -0.000000 0.000000 -44.423679 -3.043532 -0.076700 0.000000 -0.000002 -0.000006 -8.728667 10.710559 -0.000009 -0.000000 -0.000000 -0.000001 -0.000679 9.278123 0.000000 -0.000000 -0.000000 8.207792 -6.751710 -1.599556 -0.074518 -0.000003 0.000081 -0.000002 -44.370014 0.346960 0.148822 0.000002 0.000000 -0.000001 -44.423664 -3.044403 -0.074314 0.000000 -0.000002 -0.000004 -8.728671 10.710558 0.000007 -0.000000 -0.000000 0.000000 -0.000680 9.278137 -0.000000 0.000000 -0.000001 
0.000006 104.270477 1.554256 0.000010 0.000003 -0.000113 -0.000005 10.181587 0.131522 0.000001 -0.000003 0.000084 -0.000000 9.893967 -1.470711 0.000001 0.000000 -0.000000 -0.000000 9.220802 -1.370642 0.000000 -0.000000 -0.000000 0.000001 16.740433 -2.049030 0.000000 -0.000000 -0.000000 0.000000 9.617859 1.685014 0.000000 0.000000 0.000000 0.000002 22.037384 7.501101 0.000000 -0.000000 0.000000 -4.569968 11.014880 -2.160881 0.000008 0.000001 -0.000038 -10.592761 -0.524855 -2.231734 88.601521 66.154228 -64.881435 -27.841490 0.000012 0.000592 49.241129 108.785379 -65.232958 -28.328829 0.000006 0.000025 -0.000321 -0.000045 0.000007 -2.464854 -1.574135 2.682019 -51.537595 -350.078149 -8.006624 -3.215127 -1.873003 1.924476 -70.781004 -10.984616 -25.640003 -2.654603 -1.528266 1.512928 -112.302380 -38.670291 -60.381673 -2.018831 -1.152018 1.108031 -0.000001 0.000000 0.000004 -9.108259 -0.517757 2.260419 -152.077645 4.471860 34.522594 -3.700123 0.000217 0.001405 56.884903 28.406465 -15.849066 -2.850049 0.000090 -0.000511 372.967206 6.901941 -0.548325 -2.772143 -0.000003 -0.000018 0.000001 -0.000002 0.000001 -9.532495 0.000021 0.000550 -151.203340 3.348173 17.731960 -3.700053 -0.000060 0.003781 -6.340233 17.793444 11.017631 -2.950030 0.000104 -0.002051 378.957200 5.182149 -0.862001 -2.946626 0.000003 -0.000151 -0.000000 0.000002 0.000000 -9.103601 -0.043021 -1.864562 -148.849370 1.318873 11.620403 -3.379249 0.000160 -0.001052 392.007861 -4.593494 -3.888681 -2.889724 0.000115 0.000365 376.938906 -0.284258 -1.896357 -2.638809 0.000001 0.000935 0.000005 0.000000 -0.000000 -8.076660 -0.486704 -3.805743 -143.759486 -0.321730 4.642107 -3.599671 -0.000224 -0.003367 -145.222212 -42.345274 -100.842976 -2.099824 -0.000063 -0.005789 -13.792960 -28.802488 -4.585997 -2.115763 -0.000034 -0.003677 0.000002 -0.000002 -0.000002 4.570446 11.014691 -2.160851 -0.000018 0.000010 -0.000021 10.592531 -0.524531 -2.232399 72.011354 -65.284041 49.923273 27.841753 -0.000082 -0.000088 223.894694 -71.718967 238.278854 28.328833 0.000002 0.000030 0.000021 -0.000088 -0.000000 2.466147 -1.576188 2.681859 -62.540415 400.515299 -338.969420 3.217781 -1.872035 1.916516 -96.628599 412.923949 47.354299 2.656001 -1.528818 1.514594 -119.485034 49.191142 64.295453 2.020895 -1.154066 1.115132 -0.000003 0.000003 0.000004 9.109088 -0.517726 2.259995 -166.067621 -9.766937 -69.911644 3.699796 -0.000014 -0.000238 -179.296577 -15.665090 -174.792409 2.850131 0.000170 0.000378 -196.492808 -12.658191 -285.154333 2.774880 -0.000029 -0.000028 -0.000001 0.000001 -0.000000 9.533307 0.000429 0.000187 -159.627777 -5.643499 -30.653196 3.699765 0.000040 -0.000149 -177.790043 -11.371662 -158.090684 2.950122 0.000263 -0.000071 -202.786117 -8.722543 -318.524533 2.952873 -0.000046 0.000063 -0.000001 -0.000000 -0.000000 9.104474 -0.042647 -1.864919 -154.642805 -4.389795 -19.342599 3.149774 0.000463 0.000131 -174.535963 -2.753036 -53.468732 2.949972 0.000405 0.000030 -199.404545 0.467043 -2.722749 2.644320 0.000017 0.000052 -0.000001 -0.000000 0.000002 8.077737 -0.486487 -3.806090 -152.562684 -3.615063 -16.336691 3.600091 0.000207 0.014819 -168.455824 6.729928 55.491209 2.099750 0.000398 0.007651 -203.002607 15.160423 294.058167 2.125494 -0.000012 0.007513 -0.000001 0.000000 0.000001 -8.207786 -6.751667 -1.599560 -0.077001 -0.000003 0.000080 -0.000002 -44.370110 0.345938 0.153719 -0.000000 -0.000000 0.000000 -44.423679 -3.043532 -0.076700 0.000000 -0.000002 -0.000006 -8.728667 10.710559 -0.000009 -0.000000 -0.000000 -0.000001 -0.000679 9.278123 0.000000 -0.000000 -0.000000 8.207792 -6.751710 -1.599556 -0.074518 -0.000003 0.000081 -0.000002 -44.370014 0.346960 0.148822 0.000002 0.000000 -0.000001 -44.423664 -3.044403 -0.074314 0.000000 -0.000002 -0.000004 -8.728671 10.710558 0.000007 -0.000000 -0.000000 0.000000 -0.000680 9.278137 -0.000000 0.000000 -0.000001 
0.000006 104.270477 1.554256 0.000010 0.000003 -0.000113 -0.000005 10.181587 0.131522 0.000001 -0.000003 0.000084 -0.000000 9.893967 -1.470711 0.000001 0.000000 -0.000000 -0.000000 9.220802 -1.370642 0.000000 -0.000000 -0.000000 0.000001 16.740433 -2.049030 0.000000 -0.000000 -0.000000 0.000000 9.617859 1.685014 0.000000 0.000000 0.000000 0.000002 22.037384 7.501101 0.000000 -0.000000 0.000000 -4.569968 11.014880 -2.160881 0.000008 0.000001 -0.000038 -10.592759 -0.524853 -2.231736 88.714458 65.397538 -64.234152 -27.841482 0.000017 0.000580 49.499337 108.866296 -65.620141 -28.328829 0.000006 0.000044 -0.000322 -0.000044 0.000007 -2.464822 -1.574164 2.682024 -53.752455 -357.541524 -7.835127 -3.215111 -1.873006 1.924450 -72.121887 -13.780999 -26.566364 -2.654599 -1.528278 1.512927 -111.133721 -37.599652 -56.667487 -2.018835 -1.151981 1.108061 -0.000003 0.000000 0.000005 -9.108265 -0.517756 2.260429 -153.706700 6.688232 37.761278 -3.700115 0.000268 0.001423 65.652687 23.683558 -18.338233 -2.850033 0.000152 -0.000524 381.767167 5.216148 -0.867485 -2.772196 -0.000014 -0.000003 0.000001 -0.000003 0.000001 -9.532494 0.000018 0.000555 -152.867789 4.130979 19.711637 -3.700077 0.000005 0.003766 5.733639 17.920200 7.488096 -2.950022 0.000123 -0.002058 385.717721 4.207069 -1.012047 -2.946627 0.000000 -0.000154 0.000000 0.000000 -0.000002 -9.103605 -0.043013 -1.864552 -150.498137 2.243566 12.621880 -3.379247 0.000181 -0.001040 399.111176 -6.066892 -2.458237 -2.889702 0.000142 0.000365 383.587358 -1.425842 -1.400577 -2.638802 -0.000001 0.000960 -0.000005 -0.000000 0.000000 -8.076664 -0.486695 -3.805707 -150.984337 0.152620 4.886663 -3.599715 -0.000242 -0.003339 -148.487821 -37.655543 -100.096019 -2.099796 -0.000062 -0.005799 -10.775229 -31.362200 -3.495188 -2.115768 -0.000040 -0.003681 -0.000002 0.000000 -0.000006 4.570446 11.014691 -2.160851 -0.000018 0.000010 -0.000021 10.592533 -0.524526 -2.232399 71.954950 -64.482600 49.204437 27.841749 -0.000070 -0.000094 223.725373 -71.683805 238.102471 28.328833 -0.000028 0.000035 0.000022 -0.000089 -0.000000 2.466147 -1.576163 2.681866 -61.778597 398.416819 -339.616513 3.217781 -1.872031 1.916514 -97.693582 414.301025 48.693525 2.655997 -1.528817 1.514604 -127.490836 53.165957 73.389809 2.020887 -1.154079 1.115134 -0.000001 0.000001 0.000004 9.109131 -0.517694 2.260002 -162.338966 -9.239379 -54.937185 3.699755 0.000037 -0.000231 -176.429660 -14.764373 -152.869660 2.850127 0.000179 0.000379 -195.621563 -11.661131 -286.679623 2.774886 -0.000030 -0.000033 -0.000001 0.000005 0.000000 9.533313 0.000439 0.000199 -156.637288 -5.138953 -24.467030 3.699696 0.000136 -0.000137 -174.678140 -10.522655 -126.450912 2.950140 0.000256 -0.000057 -200.692336 -8.609007 -315.171730 2.952863 -0.000032 0.000059 0.000003 0.000000 0.000001 9.104474 -0.042636 -1.864917 -152.395509 -4.132828 -16.716202 3.149773 0.000446 0.000149 -170.978090 -4.715355 -55.124626 2.950056 0.000315 0.000050 -198.266458 -2.843615 17.563078 2.644330 0.000025 0.000058 -0.000001 -0.000000 0.000004 8.077730 -0.486480 -3.806080 -149.964398 -4.242523 -17.161474 3.600019 0.000380 0.014840 -165.122337 2.702654 16.861471 2.099773 0.000427 0.007682 -198.036909 9.176823 307.345699 2.125495 -0.000015 0.007514 -0.000000 -0.000000 0.000000 -8.207786 -6.751667 -1.599560 -0.077001 -0.000003 0.000080 -0.000002 -44.370110 0.345938 0.153719 -0.000000 -0.000000 0.000000 -44.423679 -3.043532 -0.076700 0.000000 -0.000002 -0.000006 -8.728667 10.710559 -0.000009 -0.000000 -0.000000 -0.000001 -0.000679 9.278123 0.000000 -0.000000 -0.000000 8.207792 -6.751710 -1.599556 -0.074518 -0.000003 0.000081 -0.000002 -44.370014 0.346960 0.148822 0.000002 0.000000 -0.000001 -44.423664 -3.044403 -0.074314 0.000000 -0.000002 -0.000004 -8.728671 10.710558 0.000007 -0.000000 -0.000000 0.000000 -0.000680 9.278137 -0.000000 0.000000 -0.000001 
